<?xml version="1.0" encoding="utf-8"?>
<!-- Generator: Adobe Illustrator 25.0.0, SVG Export Plug-In . SVG Version: 6.00 Build 0)  -->
<svg version="1.1" id="Слой_1" xmlns="http://www.w3.org/2000/svg" xmlns:xlink="http://www.w3.org/1999/xlink" x="0px" y="0px"
	 viewBox="0 0 2000 2000" style="enable-background:new 0 0 2000 2000;" xml:space="preserve">
<style type="text/css">
	.st0{fill:#094456;}
	.st1{fill:#FFFFFF;}
	.st2{fill:#E4A265;}
</style>
<g>
	<g>
		<g>
			<path class="st2" d="M284.47,939.95c7.04-15.02,16.6-28.67,28.14-40.36c9.68-9.87,20.84-18.38,33.06-25.15
				c20.92-11.65,45.05-18.31,70.69-18.31c39.79,0,75.87,15.96,102.12,41.83l36.99-36.99c-35.74-35.37-84.88-57.19-139.12-57.19
				c-40.17,0-77.54,11.99-108.74,32.57c-11.57,7.6-22.32,16.42-32,26.25c-21.29,21.52-37.67,47.92-47.36,77.35h-37.29
				c10.86-39.22,31.73-74.32,59.65-102.35c9.76-9.76,20.31-18.68,31.62-26.59c37.98-26.63,84.23-42.25,134.12-42.25
				c63.92,0,121.87,25.64,164.12,67.21c9.8,9.65,18.76,20.2,26.78,31.47c15.43,21.71,27.23,46.18,34.5,72.51h51.78
				c-8.66-40.21-25.83-77.27-49.62-109.16c-8.21-11.08-17.25-21.52-26.97-31.24c-51.33-51.33-122.25-83.1-200.58-83.1
				c-64.3,0-123.57,21.41-171.15,57.49c-11.01,8.28-21.37,17.4-31.02,27.23c-36.95,37.56-63.51,85.37-75,138.78
				c-2.91,13.39-4.84,27.16-5.75,41.19h138.74C274.26,966.62,278.46,952.78,284.47,939.95z"/>
			<path class="st2" d="M608.06,1136.83c-7.91,11.31-16.83,21.94-26.59,31.66c-42.32,42.14-100.69,68.2-165.1,68.2
				c-50.38,0-97.06-15.96-135.26-43.04c-11.23-7.98-21.79-16.94-31.47-26.78c-27.88-28.33-48.6-63.77-59.19-103.33h37.82
				c9.68,29.43,26.06,55.83,47.36,77.35c9.68,9.83,20.42,18.65,32,26.25c31.2,20.58,68.57,32.57,108.74,32.57
				c54.24,0,103.37-21.82,139.12-57.19l-36.99-36.99c-26.25,25.87-62.33,41.83-102.12,41.83c-25.64,0-49.78-6.66-70.69-18.31
				c-12.22-6.77-23.38-15.28-33.06-25.15c-11.54-11.69-21.11-25.34-28.14-40.36c-6.01-12.82-10.21-26.67-12.29-41.19H133.67
				c1.1,14.03,3.21,27.8,6.28,41.19c12.1,52.8,38.96,100.04,75.99,137.04c9.72,9.72,20.16,18.76,31.24,27.01
				c47.24,35.18,105.76,55.98,169.19,55.98c77.43,0,147.63-31.05,198.8-81.4c9.83-9.61,18.91-19.97,27.27-30.94
				c23.83-31.43,41.27-67.97,50.34-107.68h-50.49C635.18,1090.15,623.49,1114.89,608.06,1136.83z"/>
		</g>
		<g>
			<rect x="307.16" y="961.92" class="st2" width="12.99" height="76.16"/>
			<polygon class="st2" points="355.14,1008.71 338.64,961.92 328.43,961.92 328.43,1038.03 340.32,1038.03 340.32,993.84 
				356.66,1038.03 366.98,1038.03 366.98,961.92 355.14,961.92 			"/>
			<path class="st2" d="M390.91,1020.22c0,1.78-0.46,3.14-1.39,4.08c-0.93,0.95-2.28,1.42-4.06,1.42c-1.19,0-2.31-0.3-3.35-0.92
				c-1.05-0.61-2.02-1.53-2.93-2.75l-8.64,9.01c1.75,2.48,4,4.4,6.76,5.76c2.76,1.36,5.78,2.04,9.06,2.04c3.7,0,6.86-0.67,9.48-2.02
				c2.62-1.34,4.62-3.29,6-5.84c1.38-2.55,2.07-5.62,2.07-9.22v-59.87h-12.99V1020.22z"/>
			<polygon class="st2" points="418.99,961.92 413.23,961.92 413.23,1038.08 418.99,1038.08 426.22,1038.08 447.06,1038.08 
				447.06,1025.4 426.22,1025.4 426.22,1006.55 444.44,1006.55 444.44,993.92 426.22,993.92 426.22,974.6 447.06,974.6 
				447.06,961.92 426.22,961.92 			"/>
			<polygon class="st2" points="480.48,1008.72 463.98,961.92 453.77,961.92 453.77,1038.03 465.66,1038.03 465.66,993.84 
				482,1038.03 492.32,1038.03 492.32,961.92 480.48,961.92 			"/>
			<polygon class="st2" points="507.4,961.92 501.64,961.92 501.64,1038.08 507.4,1038.08 514.63,1038.08 535.48,1038.08 
				535.48,1025.4 514.63,1025.4 514.63,1006.55 532.86,1006.55 532.86,993.92 514.63,993.92 514.63,974.6 535.48,974.6 
				535.48,961.92 514.63,961.92 			"/>
			<path class="st2" d="M571.46,1003.77c2.93-1.4,5.17-3.43,6.7-6.1c1.54-2.67,2.31-5.87,2.31-9.61v-8.9c0-3.63-0.77-6.75-2.31-9.35
				c-1.54-2.6-3.76-4.57-6.68-5.92c-2.91-1.34-6.44-2.02-10.55-2.02h-6.02h-6.92h-5.81v76.21h12.73v-32.21h4.35l9.42,32.21h13.94
				l-11.26-34.27C571.39,1003.8,571.43,1003.79,571.46,1003.77z M554.91,974.34h6.81c1.12,0,2.09,0.22,2.91,0.65
				s1.44,1.07,1.86,1.91c0.42,0.84,0.63,1.83,0.63,2.99v8.48c0,1.05-0.21,1.95-0.63,2.7c-0.42,0.75-1.04,1.33-1.86,1.73
				c-0.82,0.4-1.79,0.6-2.91,0.6h-6.81V974.34z"/>
			<rect x="589.58" y="961.92" class="st2" width="12.99" height="76.16"/>
			<polygon class="st2" points="637.56,1008.72 621.06,961.92 610.85,961.92 610.85,1038.03 622.74,1038.03 622.74,993.84 
				639.08,1038.03 649.4,1038.03 649.4,961.92 637.56,961.92 			"/>
			<path class="st2" d="M677.63,996.96v12.47h6.39v10.42c0,1.22-0.24,2.27-0.73,3.14s-1.2,1.54-2.12,1.99
				c-0.93,0.45-2.02,0.68-3.28,0.68c-1.22,0-2.28-0.22-3.19-0.65c-0.91-0.44-1.6-1.07-2.07-1.89c-0.47-0.82-0.71-1.77-0.71-2.85
				v-39.49c0-1.33,0.23-2.48,0.68-3.46c0.46-0.98,1.11-1.73,1.97-2.25c0.85-0.52,1.86-0.79,3.01-0.79c1.05,0,1.96,0.24,2.75,0.71
				c0.79,0.47,1.39,1.15,1.81,2.04c0.42,0.89,0.63,1.95,0.63,3.17v5.87h13.36v-5.87c0-3.98-0.73-7.4-2.2-10.27
				c-1.46-2.86-3.59-5.05-6.36-6.55c-2.78-1.5-6.1-2.25-9.98-2.25c-3.95,0-7.34,0.78-10.16,2.33c-2.83,1.55-4.98,3.81-6.47,6.76
				c-1.48,2.95-2.23,6.47-2.23,10.55v39.49c0,3.88,0.76,7.21,2.28,10c1.52,2.79,3.71,4.92,6.57,6.39c2.86,1.47,6.3,2.2,10.32,2.2
				c3.95,0,7.33-0.76,10.16-2.28c2.83-1.52,4.98-3.71,6.47-6.57c1.48-2.87,2.23-6.28,2.23-10.27v-22.78H677.63z"/>
		</g>
	</g>
	<g>
		<g>
			<path class="st0" d="M958.21,1001.87c-16.96,15.94-38.94,23.91-65.94,23.91c-30.66,0-55.23-10.36-73.71-31.07
				c-18.48-20.71-27.72-48.23-27.72-82.54c0-20.71,3.96-39.55,11.88-56.5c7.92-16.95,19.8-30.66,35.63-41.12
				c15.84-10.46,34.42-15.69,55.74-15.69c22.94,0,42.95,6.35,60,19.04c17.05,12.69,27.31,31.02,30.76,54.98h-37.77
				c-2.64-13-8.73-23.2-18.27-30.61s-21.32-11.12-35.33-11.12c-14.42,0-26.65,4.06-36.7,12.18c-10.05,8.12-17.16,18.12-21.32,30
				c-4.16,11.88-6.24,24.82-6.24,38.83c0,10.56,1.22,20.51,3.66,29.85s6.09,17.92,10.97,25.74c4.87,7.82,11.52,14.06,19.95,18.73
				c8.43,4.67,18.22,7.01,29.39,7.01c32.29,0,50.76-18.48,55.43-55.43h38.07C984.65,964.66,975.16,985.93,958.21,1001.87z"/>
			<path class="st0" d="M1189.06,830.09c19.19,21.02,28.78,48.38,28.78,82.08c0,33.71-9.65,61.07-28.94,82.08
				c-19.29,21.02-44.37,31.52-75.23,31.52c-31.07,0-56.2-10.46-75.38-31.37c-19.19-20.91-28.78-48.33-28.78-82.24
				c0-32.9,9.39-60.05,28.18-81.48c18.78-21.42,44.32-32.13,76.6-32.13C1144.95,798.56,1169.87,809.07,1189.06,830.09z
				 M1065.86,852.63c-11.98,14.72-17.97,34.37-17.97,58.94c0,25.18,5.94,45.18,17.82,60c11.88,14.82,28.07,22.23,48.58,22.23
				c19.7,0,35.48-7.46,47.36-22.39s17.82-34.77,17.82-59.55c0-24.77-5.94-44.52-17.82-59.24c-11.88-14.72-27.87-22.08-47.97-22.08
				C1093.78,830.55,1077.84,837.91,1065.86,852.63z"/>
			<path class="st0" d="M1371.94,867.7c-2.23-25.38-17.97-38.07-47.21-38.07c-12.99,0-23.15,2.69-30.46,8.07
				c-7.31,5.38-10.97,12.74-10.97,22.08c0,8.73,2.69,14.72,8.07,17.97c5.38,3.25,17.31,7.21,35.79,11.88
				c4.87,1.42,8.63,2.44,11.27,3.05c24.16,6.09,40.61,11.57,49.34,16.45c19.29,10.35,28.93,26.5,28.93,48.43
				c0,9.54-1.62,18.17-4.87,25.89c-3.25,7.72-7.62,14.16-13.1,19.34c-5.48,5.18-11.98,9.49-19.49,12.95s-15.33,5.94-23.45,7.46
				c-8.12,1.52-16.55,2.28-25.28,2.28c-27.21,0-49.24-6.5-66.09-19.49c-16.85-13-25.28-32.08-25.28-57.26h37.46
				c0,15.84,5.18,27.57,15.53,35.18s23.86,11.42,40.51,11.42c14.62,0,26.04-3,34.27-8.99c8.22-5.99,12.33-14.37,12.33-25.13
				c0-6.9-2.18-12.54-6.55-16.91c-4.36-4.36-9.09-7.46-14.16-9.29c-5.08-1.83-13.91-4.37-26.5-7.62c-1.42-0.41-2.54-0.71-3.35-0.91
				c-27.01-6.9-44.77-12.59-53.3-17.06c-17.67-9.14-27.11-23.25-28.33-42.34v-4.26c0-19.29,7.26-34.67,21.78-46.14
				c14.52-11.47,33.96-17.21,58.33-17.21c23.55,0,42.74,5.58,57.56,16.75c14.82,11.17,22.64,28.33,23.45,51.47H1371.94z"/>
			<path class="st0" d="M1606.92,1001.87c-16.96,15.94-38.94,23.91-65.94,23.91c-30.66,0-55.23-10.36-73.71-31.07
				c-18.48-20.71-27.72-48.23-27.72-82.54c0-20.71,3.96-39.55,11.88-56.5c7.92-16.95,19.8-30.66,35.64-41.12
				s34.42-15.69,55.74-15.69c22.95,0,42.95,6.35,60,19.04c17.06,12.69,27.31,31.02,30.76,54.98h-37.77
				c-2.64-13-8.73-23.2-18.27-30.61c-9.54-7.41-21.32-11.12-35.33-11.12c-14.42,0-26.65,4.06-36.7,12.18
				c-10.05,8.12-17.16,18.12-21.32,30c-4.16,11.88-6.24,24.82-6.24,38.83c0,10.56,1.22,20.51,3.66,29.85
				c2.44,9.34,6.09,17.92,10.96,25.74c4.87,7.82,11.53,14.06,19.95,18.73s18.22,7.01,29.39,7.01c32.29,0,50.76-18.48,55.43-55.43
				h38.07C1633.37,964.66,1623.87,985.93,1606.92,1001.87z"/>
			<path class="st0" d="M1837.77,830.09c19.19,21.02,28.78,48.38,28.78,82.08c0,33.71-9.65,61.07-28.93,82.08
				c-19.29,21.02-44.37,31.52-75.23,31.52c-31.07,0-56.2-10.46-75.38-31.37c-19.19-20.91-28.78-48.33-28.78-82.24
				c0-32.9,9.39-60.05,28.18-81.48c18.78-21.42,44.32-32.13,76.6-32.13C1793.66,798.56,1818.58,809.07,1837.77,830.09z
				 M1714.57,852.63c-11.98,14.72-17.97,34.37-17.97,58.94c0,25.18,5.94,45.18,17.82,60c11.88,14.82,28.07,22.23,48.58,22.23
				c19.7,0,35.49-7.46,47.36-22.39c11.88-14.92,17.82-34.77,17.82-59.55c0-24.77-5.94-44.52-17.82-59.24
				c-11.88-14.72-27.87-22.08-47.97-22.08C1742.49,830.55,1726.55,837.91,1714.57,852.63z"/>
		</g>
		<g>
			<path class="st2" d="M798.29,1199.57h-7.45v-78.06h7.45V1199.57z"/>
			<path class="st2" d="M876.02,1199.57h-8.22l-36.29-52.4c-4.82-7.02-8.26-12.57-10.3-16.66c0.37,5.19,0.55,11.4,0.55,18.64v50.43
				h-7.23v-78.06h8.22l36.51,52.95c4.09,5.92,7.49,11.37,10.2,16.33c-0.37-11.47-0.55-18.34-0.55-20.61v-48.68h7.13V1199.57z"/>
			<path class="st2" d="M931.06,1178.41c0,15.28-7.34,22.91-22.03,22.91c-7.89,0-13.61-2.01-17.16-6.03
				c-3.55-4.02-5.32-9.98-5.32-17.87c0-1.02,0.04-2.05,0.11-3.07h7.13v2.3c0,6.21,1.04,10.85,3.13,13.92
				c2.08,3.07,6.12,4.6,12.11,4.6c5.85,0,9.76-1.61,11.73-4.82c1.97-3.22,2.96-7.86,2.96-13.92v-54.92h7.34V1178.41z"/>
			<path class="st2" d="M1000.8,1127.87h-46.7v28.18h43.74v6.25H954.1v30.91h47.14v6.36h-54.6v-78.06h54.16V1127.87z"/>
			<path class="st2" d="M1073.05,1199.57h-8.22l-36.29-52.4c-4.82-7.02-8.26-12.57-10.3-16.66c0.37,5.19,0.55,11.4,0.55,18.64v50.43
				h-7.23v-78.06h8.22l36.51,52.95c4.09,5.92,7.49,11.37,10.2,16.33c-0.37-11.47-0.55-18.34-0.55-20.61v-48.68h7.13V1199.57z"/>
			<path class="st2" d="M1143,1127.87h-46.7v28.18h43.74v6.25h-43.74v30.91h47.14v6.36h-54.6v-78.06H1143V1127.87z"/>
			<path class="st2" d="M1189.16,1121.52c7.38,0,13.28,1.74,17.71,5.21c4.42,3.47,6.63,8.75,6.63,15.84c0,5.04-1.33,9.23-4,12.55
				c-2.66,3.33-6.41,5.57-11.24,6.74c4.75,0.88,8.13,2.69,10.14,5.43c2.01,2.74,3.2,6.82,3.56,12.22c0,0.15,0.04,1.13,0.11,2.96
				c0.08,1.83,0.17,3.4,0.28,4.71c0.11,1.31,0.29,2.89,0.55,4.71c0.26,1.83,0.62,3.4,1.1,4.71c0.48,1.31,1.04,2.3,1.7,2.96h-8.44
				c-0.66-0.8-1.13-2.23-1.42-4.28c-0.29-2.05-0.51-4.68-0.66-7.89c-0.14-3.22-0.22-4.93-0.22-5.15
				c-0.51-7.09-2.23-11.78-5.15-14.09c-2.92-2.3-8.11-3.45-15.57-3.45h-22.91v34.86h-7.46v-78.06H1189.16z M1161.31,1158.79h22.04
				c3.21,0,5.99-0.18,8.33-0.55c2.34-0.37,4.7-1.06,7.07-2.08c2.38-1.02,4.2-2.65,5.48-4.88c1.28-2.23,1.92-4.99,1.92-8.28
				c0-10.09-6.47-15.13-19.4-15.13h-25.43V1158.79z"/>
			<path class="st2" d="M1234.99,1199.57h-7.46v-78.06h7.46V1199.57z"/>
			<path class="st2" d="M1312.72,1199.57h-8.22l-36.29-52.4c-4.82-7.02-8.26-12.57-10.3-16.66c0.36,5.19,0.55,11.4,0.55,18.64v50.43
				h-7.24v-78.06h8.22l36.51,52.95c4.09,5.92,7.49,11.37,10.2,16.33c-0.37-11.47-0.55-18.34-0.55-20.61v-48.68h7.12V1199.57z"/>
			<path class="st2" d="M1395.5,1199.57h-4.93l-1.31-11.07l-0.22-3.51c-2.34,5.19-5.9,9.23-10.69,12.11
				c-4.79,2.89-10.36,4.33-16.72,4.33c-10.89,0-19.74-3.71-26.53-11.13c-6.8-7.42-10.2-17.08-10.2-29
				c0-12.28,3.41-22.25,10.25-29.93s15.77-11.51,26.8-11.51c8.41,0,15.6,2.28,21.6,6.85c5.99,4.57,9.61,10.87,10.85,18.91h-7.13
				c-1.09-5.99-4-10.73-8.71-14.2c-4.71-3.47-10.21-5.21-16.5-5.21c-9.06,0-16.3,3.18-21.71,9.54c-5.41,6.36-8.11,14.84-8.11,25.43
				c0,10.31,2.72,18.55,8.17,24.72c5.45,6.18,12.63,9.26,21.54,9.26c6.94,0,12.84-2.03,17.71-6.08c4.86-4.06,7.8-9.45,8.82-16.17
				c0.29-2.05,0.44-4.35,0.44-6.91h-26.75v-6.14h33.33V1199.57z"/>
		</g>
	</g>
</g>
</svg>
